<svg xmlns="http://www.w3.org/2000/svg" viewBox="0 0 16 16" id="Bell--Streamline-Font-Awesome" height="16" width="16">
  <desc>
    Bell Streamline Icon: https://streamlinehq.com
  </desc>
<!--! Font Awesome Free 6.5.2 by @fontawesome - https://fontawesome.com License - https://fontawesome.com/license/free (Icons: CC BY 4.0, Fonts: SIL OFL 1.1, Code: MIT License) Copyright 2024 Fonticons, Inc.-->
  <path d="M7.999325 0.16c-0.5420642857142857 0 -0.98 0.4379392857142857 -0.98 0.98v0.588c-2.2356249999999998 0.45325 -3.92 2.431625 -3.92 4.802v0.5757499999999999c0 1.439375 -0.5298142857142857 2.82975 -1.4853142857142856 3.90775l-0.226625 0.25418928571428573c-0.25725 0.28787499999999994 -0.31849999999999995 0.7013107142857143 -0.16231071428571428 1.0534999999999999S1.73345 12.899999999999999 2.119325 12.899999999999999h11.759999999999998c0.385875 0 0.7349999999999999 -0.226625 0.89425 -0.5788107142857143s0.09493571428571428 -0.765625 -0.16231428571428572 -1.0534999999999999l-0.226625 -0.25418928571428573c-0.9555 -1.078 -1.4853107142857143 -2.4653107142857142 -1.4853107142857143 -3.90775V6.529999999999999c0 -2.370375 -1.684375 -4.34875 -3.92 -4.802V1.14c0 -0.5420607142857142 -0.4379392857142857 -0.98 -0.98 -0.98Zm1.3873107142857144 15.107314285714285c0.36749999999999994 -0.36749999999999994 0.5726892857142857 -0.8666892857142856 0.5726892857142857 -1.3873142857142857h-3.92c0 0.520625 0.20518571428571425 1.0198142857142856 0.5726857142857142 1.3873142857142857s0.8666892857142856 0.5726857142857142 1.3873142857142857 0.5726857142857142 1.0198107142857142 -0.20518571428571425 1.3873107142857144 -0.5726857142857142Z" fill="#000000" stroke-width="0.0357"></path>
</svg>