<svg xmlns="http://www.w3.org/2000/svg" viewBox="0 0 16 16" id="Biohazard--Streamline-Font-Awesome" height="16" width="16">
  <desc>
    Biohazard Streamline Icon: https://streamlinehq.com
  </desc>
<!--! Font Awesome Free 6.5.2 by @fontawesome - https://fontawesome.com License - https://fontawesome.com/license/free (Icons: CC BY 4.0, Fonts: SIL OFL 1.1, Code: MIT License) Copyright 2024 Fonticons, Inc.-->
  <path d="M4.8753972222222215 1.0303194444444446c-0.048999999999999995 0 -0.09527777777777778 0.019055555555555555 -0.13066944444444445 0.05444444444444444 -0.8139638888888889 0.8248555555555556 -1.3175888888888887 1.96005 -1.3175888888888887 3.2123027777777775 0 0.7132416666666667 0.1633388888888889 1.385647222222222 0.45189999999999997 1.9872722222222219 -0.5989027777777778 0.06533611111111111 -1.192361111111111 0.24772777777777777 -1.7477083333333332 0.5580694444444444 -0.9391916666666665 0.5254027777777778 -1.6088749999999998 1.3312 -1.96005 2.245888888888889 -0.019055555555555555 0.04627777777777777 -0.01361111111111111 0.100725 0.01361111111111111 0.1415583333333333 0.05989166666666666 0.100725 0.20145 0.11705833333333333 0.28856388888888884 0.03539166666666666 1.4346472222222222 -1.3121444444444443 3.9881555555555552 -1.5625944444444444 5.267630555555556 0.5852916666666667s-0.22050555555555554 4.167825 -2.112497222222222 4.715005555555555c-0.11433611111111111 0.03266666666666666 -0.17150277777777778 0.16061666666666666 -0.11161388888888887 0.2613388888888889 0.027225 0.04355833333333333 0.07078055555555554 0.07350277777777778 0.12250277777777777 0.08166944444444445 0.9936361111111109 0.16061666666666666 2.047163888888889 0.0027222222222222222 2.986352777777778 -0.5226805555555556 0.5553472222222222 -0.3103388888888889 1.0181361111111111 -0.7214055555555555 1.3747555555555555 -1.192361111111111 0.35662222222222223 0.4709555555555555 0.8194111111111111 0.8820222222222222 1.3747583333333333 1.192361111111111 0.9391888888888889 0.5254027777777778 1.995438888888889 0.6860194444444444 2.98635 0.5226805555555556 0.051725 -0.008166666666666666 0.09528055555555555 -0.03811111111111111 0.12250555555555553 -0.08166944444444445 0.05988888888888889 -0.10072222222222221 0.0027222222222222222 -0.22867222222222222 -0.11161388888888887 -0.2613388888888889 -1.8919916666666665 -0.5471805555555556 -3.3919749999999995 -2.564397222222222 -2.112497222222222 -4.715005555555555s3.8302611111111107 -1.9001583333333332 5.267630555555556 -0.5825694444444444c0.08711388888888888 0.07894444444444444 0.22867222222222222 0.0626111111111111 0.2885611111111111 -0.03539166666666666 0.027225 -0.043555555555555556 0.029947222222222222 -0.09527777777777778 0.013613888888888887 -0.1415583333333333 -0.35117777777777776 -0.9146888888888889 -1.020861111111111 -1.720486111111111 -1.9627722222222221 -2.245888888888889 -0.5553472222222222 -0.3103416666666666 -1.1488055555555554 -0.49273333333333325 -1.747711111111111 -0.5580694444444444 0.2912861111111111 -0.6043472222222221 0.45462222222222215 -1.2767527777777776 0.45462222222222215 -1.9899944444444442 0 -1.2522527777777777 -0.5036222222222222 -2.387447222222222 -1.3175861111111111 -3.2123027777777775 -0.03539166666666666 -0.035388888888888886 -0.08166944444444445 -0.05444444444444444 -0.13067222222222222 -0.05444444444444444 -0.1361138888888889 0 -0.22867222222222222 0.1415583333333333 -0.18239166666666665 0.26950555555555555 0.6969055555555556 1.9219388888888889 -0.28584166666666666 4.521725 -2.942797222222222 4.521725S4.36088611111111 3.221763888888889 5.057791666666667 1.299825c0.04627777777777777 -0.1279472222222222 -0.043555555555555556 -0.26950555555555555 -0.18239444444444444 -0.26950555555555555ZM6.693888888888888 8.434947222222222c0 -1.0058972222222222 1.0889138888888887 -1.6345833333333333 1.9600472222222223 -1.1316333333333333 0.40429444444444446 0.23341944444444443 0.65335 0.6647944444444445 0.65335 1.1316333333333333 0 1.0058972222222222 -1.0889166666666665 1.6345833333333333 -1.9600472222222223 1.131636111111111 -0.40429444444444446 -0.23341944444444443 -0.65335 -0.6647972222222222 -0.65335 -1.131636111111111Zm-1.5870944444444444 3.963655555555555c0.17150277777777778 -0.3212305555555555 0.2667833333333333 -0.6832944444444444 0.23411666666666667 -1.0834722222222222 -0.5308472222222221 -0.49001111111111106 -0.9255805555555555 -1.1270277777777777 -1.1215833333333334 -1.845711111111111 -0.34028611111111107 -0.22050555555555554 -0.7132416666666667 -0.3212305555555555 -1.0889166666666665 -0.3375638888888889 -0.24500555555555553 -0.010891666666666666 -0.49273333333333325 0.01633333333333333 -0.7377416666666666 0.0735 0.21233888888888885 1.5544277777777777 1.0535277777777776 2.9074055555555556 2.2567805555555553 3.7948722222222218 0.18511388888888888 -0.18239166666666665 0.3430083333333333 -0.3838416666666667 0.45734444444444444 -0.601625ZM8.00058611111111 2.772586111111111c-0.7840194444444444 0 -1.532647222222222 0.16061388888888886 -2.210497222222222 0.4491777777777778 0.05444444444444444 0.22594999999999998 0.1361138888888889 0.44100833333333334 0.24500555555555553 0.6397361111111111 0.18511666666666665 0.3375638888888889 0.45462222222222215 0.62885 0.8194083333333333 0.8248555555555556 0.36206388888888885 -0.11161388888888887 0.7486305555555556 -0.17150555555555555 1.1488055555555554 -0.17150555555555555s0.7840194444444444 0.05989166666666666 1.1488083333333334 0.17150555555555555c0.3647861111111111 -0.19600555555555554 0.6342916666666666 -0.4872916666666667 0.8194083333333333 -0.8248555555555556 0.10889166666666666 -0.19872777777777778 0.1905611111111111 -0.4137861111111111 0.24500555555555553 -0.6397361111111111 -0.6832944444444444 -0.28856388888888884 -1.431925 -0.4491777777777778 -2.2159444444444443 -0.4491777777777778Zm3.781261111111111 6.696833333333333c-0.19600277777777775 0.7186833333333332 -0.5907361111111111 1.3529777777777776 -1.1215833333333334 1.845711111111111 -0.03266666666666666 0.40017777777777774 0.05989166666666666 0.7649638888888888 0.23411666666666667 1.0834722222222222 0.11705833333333333 0.21778333333333333 0.27223055555555553 0.4192333333333333 0.45734722222222224 0.601625 1.2059722222222222 -0.8874666666666666 2.047161111111111 -2.2404444444444445 2.2567777777777778 -3.7948722222222218 -0.24500555555555553 -0.05988888888888889 -0.49273611111111104 -0.08439166666666666 -0.7377416666666666 -0.07350277777777778 -0.375675 0.01633611111111111 -0.7486305555555556 0.11978333333333332 -1.0889166666666665 0.3375638888888889Z" fill="#000000" stroke-width="0.0278"></path>
</svg>