<svg xmlns="http://www.w3.org/2000/svg" viewBox="0 0 16 16" id="Chart-Simple--Streamline-Font-Awesome" height="16" width="16">
  <desc>
    Chart Simple Streamline Icon: https://streamlinehq.com
  </desc>
<!--! Font Awesome Free 6.5.2 by @fontawesome - https://fontawesome.com License - https://fontawesome.com/license/free (Icons: CC BY 4.0, Fonts: SIL OFL 1.1, Code: MIT License) Copyright 2024 Fonticons, Inc.-->
  <path d="M5.76 1.84c0 -0.9274999999999999 0.7525 -1.68 1.68 -1.68h1.1199999999999999c0.9274999999999999 0 1.68 0.7525 1.68 1.68v12.319999999999999c0 0.9274999999999999 -0.7525 1.68 -1.68 1.68h-1.1199999999999999c-0.9274999999999999 0 -1.68 -0.7525 -1.68 -1.68V1.84ZM0.16 8.56c0 -0.9274999999999999 0.7525 -1.68 1.68 -1.68h1.1199999999999999c0.9274999999999999 0 1.68 0.7525 1.68 1.68v5.6000000000000005c0 0.9274999999999999 -0.7525 1.68 -1.68 1.68H1.84c-0.9274999999999999 0 -1.68 -0.7525 -1.68 -1.68v-5.6000000000000005ZM13.04 2.4h1.1199999999999999c0.9274999999999999 0 1.68 0.7525 1.68 1.68v10.08c0 0.9274999999999999 -0.7525 1.68 -1.68 1.68h-1.1199999999999999c-0.9274999999999999 0 -1.68 -0.7525 -1.68 -1.68V4.079999999999999c0 -0.9274999999999999 0.7525 -1.68 1.68 -1.68Z" fill="#000000" stroke-width="0.0357"></path>
</svg>