<svg xmlns="http://www.w3.org/2000/svg" viewBox="0 0 16 16" id="Dungeon--Streamline-Font-Awesome" height="16" width="16">
  <desc>
    Dungeon Streamline Icon: https://streamlinehq.com
  </desc>
<!--! Font Awesome Free 6.5.2 by @fontawesome - https://fontawesome.com License - https://fontawesome.com/license/free (Icons: CC BY 4.0, Fonts: SIL OFL 1.1, Code: MIT License) Copyright 2024 Fonticons, Inc.-->
  <path d="M10.51875 4.890625c0.040625 0.034375 0.084375 0.06875 0.121875 0.103125 0.290625 0.25625 0.71875 0.328125 1.04375 0.1125l2.1125 -1.409375c0.35625 -0.2375 0.44375 -0.725 0.159375 -1.04375 -0.51875 -0.571875 -1.115625 -1.071875 -1.778125 -1.478125 -0.371875 -0.228125 -0.840625 -0.04375 -1.003125 0.3625l-0.953125 2.38125c-0.140625 0.346875 0.00625 0.7375 0.296875 0.975zM10.25 1.15c0.159375 -0.4 -0.05 -0.85625 -0.46875 -0.953125C9.209375 0.06875 8.6125 0 8 0s-1.209375 0.06875 -1.78125 0.2c-0.421875 0.09375 -0.63125 0.55 -0.46875 0.95l0.946875 2.36875c0.140625 0.353125 0.525 0.5375 0.90625 0.5 0.13125 -0.0125 0.2625 -0.01875 0.396875 -0.01875s0.26875 0.00625 0.396875 0.01875c0.378125 0.0375 0.7625 -0.146875 0.90625 -0.5L10.25 1.15zM2.046875 2.65625c-0.284375 0.31875 -0.196875 0.80625 0.159375 1.04375l2.1125 1.409375c0.321875 0.215625 0.753125 0.14375 1.04375 -0.1125 0.040625 -0.034375 0.08125 -0.071875 0.125 -0.103125 0.290625 -0.234375 0.434375 -0.628125 0.296875 -0.975l-0.959375 -2.38125c-0.1625 -0.403125 -0.634375 -0.5875 -1.003125 -0.3625 -0.6625 0.40625 -1.259375 0.90625 -1.775 1.48125zm9.8125 4.284375c0.028125 0.103125 0.053125 0.20625 0.071875 0.3125 0.078125 0.40625 0.40625 0.746875 0.81875 0.746875h2.5c0.415625 0 0.753125 -0.3375 0.715625 -0.75 -0.078125 -0.85 -0.290625 -1.6625 -0.615625 -2.415625 -0.171875 -0.403125 -0.66875 -0.51875 -1.034375 -0.278125l-2.14375 1.428125c-0.30625 0.203125 -0.4125 0.6 -0.3125 0.953125zM1.684375 4.55625c-0.3625 -0.24375 -0.8625 -0.125 -1.034375 0.278125C0.325 5.5875 0.1125 6.4 0.034375 7.25c-0.0375 0.4125 0.3 0.75 0.715625 0.75h2.5c0.415625 0 0.74375 -0.3375 0.81875 -0.746875 0.01875 -0.10625 0.04375 -0.209375 0.071875 -0.3125 0.096875 -0.35625 -0.00625 -0.75 -0.3125 -0.953125l-2.14375 -1.43125zM3.25 9H0.75c-0.415625 0 -0.75 0.334375 -0.75 0.75v1.5c0 0.415625 0.334375 0.75 0.75 0.75h2.5c0.415625 0 0.75 -0.334375 0.75 -0.75v-1.5c0 -0.415625 -0.334375 -0.75 -0.75 -0.75zm9.5 0c-0.415625 0 -0.75 0.334375 -0.75 0.75v1.5c0 0.415625 0.334375 0.75 0.75 0.75h2.5c0.415625 0 0.75 -0.334375 0.75 -0.75v-1.5c0 -0.415625 -0.334375 -0.75 -0.75 -0.75h-2.5zM0.75 13c-0.415625 0 -0.75 0.334375 -0.75 0.75v1.5c0 0.415625 0.334375 0.75 0.75 0.75h2.5c0.415625 0 0.75 -0.334375 0.75 -0.75v-1.5c0 -0.415625 -0.334375 -0.75 -0.75 -0.75H0.75zm12 0c-0.415625 0 -0.75 0.334375 -0.75 0.75v1.5c0 0.415625 0.334375 0.75 0.75 0.75h2.5c0.415625 0 0.75 -0.334375 0.75 -0.75v-1.5c0 -0.415625 -0.334375 -0.75 -0.75 -0.75h-2.5zM8.5 6c0 -0.275 -0.225 -0.5 -0.5 -0.5s-0.5 0.225 -0.5 0.5v8.5c0 0.275 0.225 0.5 0.5 0.5s0.5 -0.225 0.5 -0.5V6zm-2 1c0 -0.275 -0.225 -0.5 -0.5 -0.5s-0.5 0.225 -0.5 0.5v7.5c0 0.275 0.225 0.5 0.5 0.5s0.5 -0.225 0.5 -0.5V7zm4 0c0 -0.275 -0.225 -0.5 -0.5 -0.5s-0.5 0.225 -0.5 0.5v7.5c0 0.275 0.225 0.5 0.5 0.5s0.5 -0.225 0.5 -0.5V7z" fill="#000000" stroke-width="0.0313"></path>
</svg>