<svg xmlns="http://www.w3.org/2000/svg" viewBox="0 0 16 16" id="Gavel--Streamline-Font-Awesome" height="16" width="16">
  <desc>
    Gavel Streamline Icon: https://streamlinehq.com
  </desc>
<!--! Font Awesome Free 6.5.2 by @fontawesome - https://fontawesome.com License - https://fontawesome.com/license/free (Icons: CC BY 4.0, Fonts: SIL OFL 1.1, Code: MIT License) Copyright 2024 Fonticons, Inc.-->
  <path d="M9.9165625 0.44855625c-0.3827 -0.3827 -1.00420625 -0.3827 -1.38690625 0L4.855734375 4.12248125c-0.3827 0.3827 -0.3827 1.004203125 0 1.38690625l0.48985625 0.48985625c0.3827 0.3827 1.00420625 0.3827 1.38690625 0l0.1224625 -0.122465625 3.26979375 3.26673125 -0.122465625 0.1224625c-0.3827 0.3827 -0.3827 1.00420625 0 1.38690625l0.48985625 0.48985625c0.3827 0.382703125 1.00420625 0.382703125 1.38690625 0L15.552975 7.4688125c0.3827 -0.3827 0.3827 -1.00420625 0 -1.38690625l-0.48985625 -0.48985625c-0.3827 -0.3827 -1.00420625 -0.3827 -1.38690625 0l-0.122465625 0.1224625L10.28395625 2.444721875l0.1224625 -0.122465625c0.3827 -0.3827 0.3827 -1.00420625 0 -1.38690625L9.9165625 0.44549375ZM5.262928125 9.265971875c-0.382703125 -0.3827 -1.00420625 -0.3827 -1.38690625 0L0.447025 12.69496875c-0.3827 0.3827 -0.3827 1.00420625 0 1.38690625l1.46956875 1.46956875c0.3827 0.3827 1.00420625 0.3827 1.38690625 0l3.428996875 -3.42899375c0.3827 -0.382703125 0.3827 -1.00420625 0 -1.38690625l-0.0428625 -0.0428625 1.800221875 -1.7971625 -1.38690625 -1.38690625 -1.7971625 1.7971625 -0.0428625 -0.0428625Z" fill="#000000" stroke-width="0.0313"></path>
</svg>