<svg xmlns="http://www.w3.org/2000/svg" viewBox="0 0 16 16" id="Gem--Streamline-Font-Awesome" height="16" width="16">
  <desc>
    Gem Streamline Icon: https://streamlinehq.com
  </desc>
<!--! Font Awesome Free 6.5.2 by @fontawesome - https://fontawesome.com License - https://fontawesome.com/license/free (Icons: CC BY 4.0, Fonts: SIL OFL 1.1, Code: MIT License) Copyright 2024 Fonticons, Inc.-->
  <path d="M3.73444375 1.316059375c0.137815625 -0.1868125 0.358315625 -0.300125 0.591065625 -0.300125h7.3500375c0.23275 0 0.453253125 0.11025 0.591065625 0.300125l3.430015625 4.655025c0.20825 0.28175 0.1868125 0.670690625 -0.0459375 0.931003125L8.54565625 14.742128125c-0.1378125 0.153125 -0.336878125 0.2419375 -0.545128125 0.2419375s-0.404253125 -0.0888125 -0.545128125 -0.2419375L0.350365625 6.9020875c-0.235815625 -0.2603125 -0.254190625 -0.649253125 -0.0459375 -0.931003125L3.73444375 1.316059375Zm1.17906875 1.21888125c-0.1010625 0.0765625 -0.128625 0.214378125 -0.0643125 0.321565625l1.757884375 2.9277625L2.0990625 6.160959375c-0.1255625 0.0091875 -0.223565625 0.116375 -0.223565625 0.245003125s0.098003125 0.23275 0.223565625 0.245l5.880028125 0.490003125h0.0398125l5.88003125 -0.490003125c0.1255625 -0.0091875 0.2235625 -0.116375 0.2235625 -0.245s-0.098 -0.232753125 -0.2235625 -0.245003125l-4.5049625 -0.373625 1.757884375 -2.927765625c0.0643125 -0.1071875 0.03675 -0.2480625 -0.0643125 -0.321565625s-0.2419375 -0.06125 -0.3276875 0.030625l-2.759328125 2.985953125 -2.759325 -2.989015625c-0.08575 -0.091875 -0.226628125 -0.104125 -0.327690625 -0.030625Z" fill="#000000" stroke-width="0.0313"></path>
</svg>