<svg xmlns="http://www.w3.org/2000/svg" viewBox="0 0 16 16" id="Hand-Peace--Streamline-Font-Awesome" height="16" width="16">
  <desc>
    Hand Peace Streamline Icon: https://streamlinehq.com
  </desc>
<!--! Font Awesome Free 6.5.2 by @fontawesome - https://fontawesome.com License - https://fontawesome.com/license/free (Icons: CC BY 4.0, Fonts: SIL OFL 1.1, Code: MIT License) Copyright 2024 Fonticons, Inc.-->
  <path d="M7.509965625 0.16c0.5420625 0 0.98 0.4379375 0.98 0.98v6.37h-1.96V1.14c0 -0.5420625 0.4379375 -0.98 0.98 -0.98Zm2.94 4.9c0.5420625 0 0.98 0.4379375 0.98 0.98V8c0 0.5420625 -0.4379375 0.98 -0.98 0.98s-0.98 -0.4379375 -0.98 -0.98v-1.96c0 -0.5420625 0.4379375 -0.98 0.98 -0.98Zm1.96 1.96c0 -0.5420625 0.4379375 -0.98 0.98 -0.98s0.98 0.4379375 0.98 0.98v1.96c0 0.5420625 -0.4379375 0.98 -0.98 0.98s-0.98 -0.4379375 -0.98 -0.98v-1.96ZM3.507278125 1.728l2.529625 5.782h-2.137625L1.712653125 2.512c-0.2174375 -0.496125 0.0091875 -1.071875 0.5053125 -1.2893125s1.0749375 0.0091875 1.2893125 0.5053125Zm0.826875 6.7773125 -0.006125 -0.0153125h2.9369375c0.6768125 0 1.225 0.5481875 1.225 1.225s-0.5481875 1.225 -1.225 1.225h-1.715c-0.2695 0 -0.49 0.2205 -0.49 0.49s0.2205 0.49 0.49 0.49h1.715c1.218875 0 2.205 -0.986125 2.205 -2.205v-0.018375c0.287875 0.165375 0.6216875 0.263375 0.98 0.263375 0.40425 0 0.777875 -0.1225 1.09025 -0.33075 0.2664375 0.7625625 0.9953125 1.31075 1.84975 1.31075 0.3583125 0 0.692125 -0.0949375 0.98 -0.263375v0.263375c0 2.70725 -2.19275 4.9 -4.9 4.9h-1.8895625c-1.2985 0 -2.5449375 -0.5175625 -3.4636875 -1.4363125l-0.35525 -0.35525c-0.7380625 -0.735 -1.1515 -1.733375 -1.1515 -2.7715625V10.45c0 -1.0014375 0.753375 -1.8283125 1.7241875 -1.9446875Z" fill="#000000" stroke-width="0.0313"></path>
</svg>