<svg xmlns="http://www.w3.org/2000/svg" viewBox="0 0 16 16" id="Hand-Spock--Streamline-Font-Awesome" height="16" width="16">
  <desc>
    Hand Spock Streamline Icon: https://streamlinehq.com
  </desc>
<!--! Font Awesome Free 6.5.2 by @fontawesome - https://fontawesome.com License - https://fontawesome.com/license/free (Icons: CC BY 4.0, Fonts: SIL OFL 1.1, Code: MIT License) Copyright 2024 Fonticons, Inc.-->
  <path d="M6.743416666666667 0.886136111111111c-0.1408722222222222 -0.5236777777777777 -0.6767972222222222 -0.8329833333333333 -1.200475 -0.6921111111111111S4.709961111111111 0.8708222222222222 4.850833333333333 1.3944999999999999l1.6200277777777776 6.048305555555555c0.07656111111111111 0.2817444444444444 -0.1378111111111111 0.5573638888888889 -0.42874166666666663 0.5573638888888889 -0.19599444444444442 0 -0.3674916666666666 -0.12862222222222222 -0.42567777777777777 -0.3154305555555555l-1.3321583333333333 -4.379280555555555c-0.1561861111111111 -0.51755 -0.7043611111111111 -0.8084833333333332 -1.221911111111111 -0.6522972222222222S2.2538888888888886 3.3575194444444443 2.4100722222222224 3.8750722222222223l1.9232083333333332 6.320863888888888c0.0735 0.24193055555555554 -0.22049444444444444 0.42261388888888884 -0.4042416666666666 0.24805555555555553L2.2324527777777776 8.827027777777777c-0.4899888888888889 -0.46549166666666664 -1.264786111111111 -0.4471166666666666 -1.7333388888888888 0.04287222222222222s-0.44711388888888887 1.264786111111111 0.042875 1.7333388888888888l3.4421749999999998 3.2768027777777777c1.3199083333333332 1.258661111111111 3.074683333333333 1.959958333333333 4.899894444444444 1.959958333333333h0.584925c0.0030638888888888886 0 0.0030638888888888886 -0.0030611111111111112 0.0030638888888888886 -0.0030611111111111112l0.0030611111111111112 -0.0030638888888888886c1.7853999999999999 -0.1071861111111111 3.3258027777777777 -1.3229722222222222 3.8372305555555553 -3.0532472222222222l2.4866944444444443 -8.421691666666666c0.15312222222222222 -0.5175527777777778 -0.14393333333333333 -1.0626638888888889 -0.6614833333333333 -1.21885s-1.0626666666666666 0.1439361111111111 -1.21885 0.6614861111111111l-1.154536111111111 3.9260416666666664c-0.048999999999999995 0.1623083333333333 -0.1959972222222222 0.27255555555555555 -0.3674944444444444 0.27255555555555555 -0.24193055555555554 0 -0.42261388888888884 -0.2235583333333333 -0.37361666666666665 -0.46242777777777777L13.125530555555555 2.3224166666666664c0.11330833333333334 -0.5298 -0.22661944444444446 -1.050413888888889 -0.7564222222222222 -1.160661111111111s-1.050413888888889 0.22661944444444446 -1.160661111111111 0.7564194444444444L10.056972222222221 7.3601222222222225c-0.07962499999999999 0.37361666666666665 -0.40730555555555553 0.6400472222222221 -0.7901083333333333 0.6400472222222221 -0.36443055555555554 0 -0.6859861111111111 -0.24499444444444446 -0.7778583333333333 -0.597175L6.743416666666667 0.886136111111111Z" fill="#000000" stroke-width="0.0278"></path>
</svg>