<svg xmlns="http://www.w3.org/2000/svg" viewBox="0 0 16 16" id="Hand-Middle-Finger--Streamline-Font-Awesome" height="16" width="16">
  <desc>
    Hand Middle Finger Streamline Icon: https://streamlinehq.com
  </desc>
<!--! Font Awesome Free 6.5.2 by @fontawesome - https://fontawesome.com License - https://fontawesome.com/license/free (Icons: CC BY 4.0, Fonts: SIL OFL 1.1, Code: MIT License) Copyright 2024 Fonticons, Inc.-->
  <path d="M8 0.16c-0.6769464285714285 0 -1.2252392857142855 0.5482964285714286 -1.2252392857142855 1.2252392857142855v5.0296071428571425c-0.26036428571428566 -0.23279642857142857 -0.6034321428571429 -0.37369642857142854 -0.9801928571428571 -0.37369642857142854 -0.8117214285714286 0 -1.4702857142857142 0.6585642857142857 -1.4702857142857142 1.4702857142857142v2.450478571428571c0 0.26955357142857145 -0.22054285714285715 0.49009642857142854 -0.49009642857142854 0.49009642857142854s-0.49009642857142854 -0.22054285714285715 -0.49009642857142854 -0.49009642857142854v-1.7061464285714285c-0.061260714285714286 0.042885714285714284 -0.11946071428571428 0.09189285714285714 -0.17765714285714285 0.13783928571428572l-0.5881178571428571 0.49009642857142854c-0.4472107142857143 0.3737 -0.7045107142857142 0.9250571428571428 -0.7045107142857142 1.5070464285714285v1.1639749999999998c0 1.1639785714285713 0.5176642857142857 2.266692857142857 1.4120892857142857 3.011025l0.16540714285714286 0.13783928571428572c0.8821714285714286 0.7351464285714285 1.9910142857142854 1.1364107142857143 3.1366107142857143 1.1364107142857143h3.617521428571428c2.1656071428571426 0 3.9207642857142857 -1.7551535714285713 3.9207642857142857 -3.9207642857142857v-2.9375142857142853c0 -0.8117178571428572 -0.6585678571428571 -1.4702857142857142 -1.4702857142857142 -1.4702857142857142 -0.37982499999999997 0 -0.7228928571428571 0.14396428571428568 -0.9832571428571427 0.3767607142857143 -0.058196428571428566 -0.7596464285714285 -0.6922607142857142 -1.3569535714285714 -1.4672214285714285 -1.3569535714285714 -0.3767642857142857 0 -0.7198285714285714 0.14090357142857143 -0.9801928571428571 0.3737V1.3852392857142857C9.225239285714284 0.7082964285714285 8.676942857142857 0.16 8 0.16Z" fill="#000000" stroke-width="0.0357"></path>
</svg>