<svg xmlns="http://www.w3.org/2000/svg" viewBox="0 0 16 16" id="Hand--Streamline-Font-Awesome" height="16" width="16">
  <desc>
    Hand Streamline Icon: https://streamlinehq.com
  </desc>
<!--! Font Awesome Free 6.5.2 by @fontawesome - https://fontawesome.com License - https://fontawesome.com/license/free (Icons: CC BY 4.0, Fonts: SIL OFL 1.1, Code: MIT License) Copyright 2024 Fonticons, Inc.-->
  <path d="M9.470775 1.14c0 -0.5420625 -0.4379375 -0.98 -0.98 -0.98s-0.98 0.4379375 -0.98 0.98v6.37c0 0.2695 -0.2205 0.49 -0.49 0.49s-0.49 -0.2205 -0.49 -0.49V2.12c0 -0.5420625 -0.4379375 -0.98 -0.98 -0.98s-0.98 0.4379375 -0.98 0.98V10.45c0 0.0459375 0 0.0949375 0.0030625 0.140875l-1.8528125 -1.764c-0.49 -0.4655 -1.2648125 -0.447125 -1.733375 0.042875s-0.447125 1.2648125 0.042875 1.733375l3.44225 3.276875c1.3199375 1.2586875 3.07475 1.96 4.9 1.96h0.588c2.97675 0 5.39 -2.41325 5.39 -5.39V4.08c0 -0.5420625 -0.4379375 -0.98 -0.98 -0.98s-0.98 0.4379375 -0.98 0.98v3.43c0 0.2695 -0.2205 0.49 -0.49 0.49s-0.49 -0.2205 -0.49 -0.49V2.12c0 -0.5420625 -0.4379375 -0.98 -0.98 -0.98s-0.98 0.4379375 -0.98 0.98v5.39c0 0.2695 -0.2205 0.49 -0.49 0.49s-0.49 -0.2205 -0.49 -0.49V1.14Z" fill="#000000" stroke-width="0.0313"></path>
</svg>