<svg xmlns="http://www.w3.org/2000/svg" viewBox="0 0 16 16" id="Hat-Wizard--Streamline-Font-Awesome" height="16" width="16">
  <desc>
    Hat Wizard Streamline Icon: https://streamlinehq.com
  </desc>
<!--! Font Awesome Free 6.5.2 by @fontawesome - https://fontawesome.com License - https://fontawesome.com/license/free (Icons: CC BY 4.0, Fonts: SIL OFL 1.1, Code: MIT License) Copyright 2024 Fonticons, Inc.-->
  <path d="m2 13 3.26875 -7.353125c0.478125 -1.075 1.259375 -1.984375 2.25 -2.615625L12.109375 0.09375c0.09375 -0.059375 0.203125 -0.090625 0.3125 -0.090625C12.740625 0 13 0.259375 13 0.58125v0.05c0 0.08125 -0.015625 0.159375 -0.04375 0.234375l-1.86875 4.6625c-0.059375 0.146875 -0.0875 0.303125 -0.0875 0.459375 0 0.171875 0.0375 0.34375 0.10625 0.503125L14 13H7.528125l0.36875 -1.10625 1.2625 -0.421875c0.203125 -0.06875 0.340625 -0.259375 0.340625 -0.475s-0.1375 -0.40625 -0.340625 -0.475l-1.2625 -0.421875 -0.421875 -1.2625c-0.06875 -0.2 -0.259375 -0.3375 -0.475 -0.3375s-0.40625 0.1375 -0.475 0.340625l-0.421875 1.2625 -1.2625 0.421875c-0.203125 0.06875 -0.340625 0.259375 -0.340625 0.475s0.1375 0.40625 0.340625 0.475l1.2625 0.421875 0.36875 1.103125H2zm6.7375 -8.578125c-0.034375 -0.103125 -0.128125 -0.171875 -0.2375 -0.171875s-0.203125 0.06875 -0.2375 0.171875l-0.209375 0.63125 -0.63125 0.209375c-0.103125 0.034375 -0.171875 0.128125 -0.171875 0.2375s0.06875 0.203125 0.171875 0.2375l0.63125 0.209375 0.209375 0.63125c0.034375 0.103125 0.128125 0.171875 0.2375 0.171875s0.203125 -0.06875 0.2375 -0.171875l0.209375 -0.63125 0.63125 -0.209375c0.103125 -0.034375 0.171875 -0.128125 0.171875 -0.2375s-0.06875 -0.203125 -0.171875 -0.2375l-0.63125 -0.209375 -0.209375 -0.63125zM1 14h14c0.553125 0 1 0.446875 1 1s-0.446875 1 -1 1H1c-0.553125 0 -1 -0.446875 -1 -1s0.446875 -1 1 -1z" fill="#000000" stroke-width="0.0313"></path>
</svg>