<svg xmlns="http://www.w3.org/2000/svg" viewBox="0 0 16 16" id="House-Chimney-Crack--Streamline-Font-Awesome" height="16" width="16">
  <desc>
    House Chimney Crack Streamline Icon: https://streamlinehq.com
  </desc>
<!--! Font Awesome Free 6.5.2 by @fontawesome - https://fontawesome.com License - https://fontawesome.com/license/free (Icons: CC BY 4.0, Fonts: SIL OFL 1.1, Code: MIT License) Copyright 2024 Fonticons, Inc.-->
  <path d="M15.835888888888888 7.985027777777778c0 0.49004166666666665 -0.4083694444444444 0.8739055555555555 -0.8711861111111111 0.8739055555555555h-0.8711833333333333l0.019055555555555555 4.361372222222222c0.0054444444444444445 0.9664694444444445 -0.7759 1.750536111111111 -1.7423694444444442 1.750536111111111H9.046088888888889L8.000666666666666 13.22575l2.1997416666666667 -1.8322111111111108c0.21235277777777778 -0.1769611111111111 0.2069083333333333 -0.5063777777777778 -0.010888888888888889 -0.6778916666666667l-3.2070499999999997 -2.5209916666666667c-0.39747777777777776 -0.3130833333333333 -0.920188888888889 0.1905722222222222 -0.6207194444444444 0.5989388888888889l1.6389166666666666 2.2541916666666664 -2.327697222222222 1.9383888888888887c-0.16606944444444444 0.13612222222222223 -0.2041861111111111 0.3756972222222222 -0.0952861111111111 0.5581027777777777l0.8548499999999999 1.4238416666666665H3.6474638888888884c-0.9610277777777778 0 -1.7423694444444442 -0.7813444444444444 -1.7423694444444442 -1.7423694444444442V8.858933333333333H1.0311861111111111c-0.49004166666666665 0 -0.8711861111111111 -0.38114166666666666 -0.8711861111111111 -0.8739083333333333 0 -0.24501944444444446 0.081675 -0.46281666666666665 0.27224444444444446 -0.6533888888888888L7.412616666666666 1.2469527777777778c0.1905722222222222 -0.1905722222222222 0.4083694444444444 -0.21779444444444443 0.5989388888888889 -0.21779444444444443s0.4083694444444444 0.054447222222222216 0.5717166666666667 0.19056944444444443l2.902136111111111 2.5509388888888886V2.7715277777777776c0 -0.481875 0.3893111111111111 -0.8711861111111111 0.8711833333333333 -0.8711861111111111H13.227777777777776c0.481875 0 0.8711861111111111 0.3893111111111111 0.8711861111111111 0.8711861111111111v3.2941694444444445l1.4374555555555555 1.2632166666666667c0.2177972222222222 0.1905722222222222 0.3266944444444444 0.4083694444444444 0.29946944444444445 0.6533888888888888Z" fill="#000000" stroke-width="0.0278"></path>
</svg>