<svg xmlns="http://www.w3.org/2000/svg" viewBox="0 0 16 16" id="Lock--Streamline-Font-Awesome" height="16" width="16">
  <desc>
    Lock Streamline Icon: https://streamlinehq.com
  </desc>
<!--! Font Awesome Free 6.5.2 by @fontawesome - https://fontawesome.com License - https://fontawesome.com/license/free (Icons: CC BY 4.0, Fonts: SIL OFL 1.1, Code: MIT License) Copyright 2024 Fonticons, Inc.-->
  <path d="M5.55 4.569999999999999v1.4699999999999998h4.8999999999999995v-1.4699999999999998c0 -1.3536249999999999 -1.0963749999999999 -2.4499999999999997 -2.4499999999999997 -2.4499999999999997s-2.4499999999999997 1.0963749999999999 -2.4499999999999997 2.4499999999999997Zm-1.96 1.4699999999999998v-1.4699999999999998C3.59 2.1353142857142857 5.565314285714286 0.16 8 0.16s4.41 1.9753142857142856 4.41 4.41v1.4699999999999998h0.49c1.0810642857142856 0 1.96 0.8789392857142856 1.96 1.96v5.879999999999999c0 1.0810607142857143 -0.8789357142857142 1.96 -1.96 1.96H3.0999999999999996c-1.0810607142857143 0 -1.96 -0.8789392857142856 -1.96 -1.96V8c0 -1.0810607142857143 0.8789392857142856 -1.96 1.96 -1.96h0.49Z" fill="#000000" stroke-width="0.0357"></path>
</svg>