<svg xmlns="http://www.w3.org/2000/svg" viewBox="0 0 16 16" id="Map-Pin--Streamline-Font-Awesome" height="16" width="16">
  <desc>
    Map Pin Streamline Icon: https://streamlinehq.com
  </desc>
<!--! Font Awesome Free 6.5.2 by @fontawesome - https://fontawesome.com License - https://fontawesome.com/license/free (Icons: CC BY 4.0, Fonts: SIL OFL 1.1, Code: MIT License) Copyright 2024 Fonticons, Inc.-->
  <path d="M3.59 4.57c0 -3.39482 3.6750000000000003 -5.51658 6.615000000000001 -3.8191699999999997C11.56946 1.5386 12.41 2.99446 12.41 4.57c0 3.39482 -3.6750000000000003 5.51658 -6.615000000000001 3.8191699999999997C4.43054 7.6014 3.59 6.1455400000000004 3.59 4.57ZM8 2.6100000000000003c0.2695 0 0.49000000000000005 -0.22050000000000003 0.49000000000000005 -0.49000000000000005s-0.22050000000000003 -0.49000000000000005 -0.49000000000000005 -0.49000000000000005c-1.623125 0 -2.94 1.316875 -2.94 2.94 0 0.2695 0.22050000000000003 0.49000000000000005 0.49000000000000005 0.49000000000000005s0.49000000000000005 -0.22050000000000003 0.49000000000000005 -0.49000000000000005c0 -1.0810650000000002 0.87894 -1.9600000000000002 1.9600000000000002 -1.9600000000000002Zm-0.9800000000000001 12.25v-4.988815000000001c0.3185 0.05819 0.64619 0.088815 0.9800000000000001 0.088815s0.6615000000000001 -0.030625000000000003 0.9800000000000001 -0.088815V14.86c0 0.542065 -0.43793499999999996 0.9800000000000001 -0.9800000000000001 0.9800000000000001s-0.9800000000000001 -0.43793499999999996 -0.9800000000000001 -0.9800000000000001Z" fill="#000000" stroke-width="0.05"></path>
</svg>