<svg xmlns="http://www.w3.org/2000/svg" viewBox="0 0 16 16" id="Paper-Plane--Streamline-Font-Awesome" height="16" width="16">
  <desc>
    Paper Plane Streamline Icon: https://streamlinehq.com
  </desc>
<!--! Font Awesome Free 6.5.2 by @fontawesome - https://fontawesome.com License - https://fontawesome.com/license/free (Icons: CC BY 4.0, Fonts: SIL OFL 1.1, Code: MIT License) Copyright 2024 Fonticons, Inc.-->
  <path d="M15.413215625 0.33158125c0.309246875 0.21433125 0.471525 0.584815625 0.41335 0.955303125l-1.95959375 12.737359375c-0.045928125 0.297 -0.226578125 0.557259375 -0.489896875 0.704228125s-0.57869375 0.165340625 -0.857321875 0.048990625l-3.661990625 -1.521746875 -2.097378125 2.268840625c-0.27250625 0.297003125 -0.70116875 0.39498125 -1.077778125 0.2480125s-0.621559375 -0.51133125 -0.621559375 -0.915496875v-2.559721875c0 -0.122475 0.045928125 -0.238825 0.1286 -0.32761875l5.1316875 -5.60015c0.1775875 -0.1929 0.1714625 -0.4899 -0.01225 -0.6736125s-0.4807125 -0.195959375 -0.673609375 -0.02143125L3.407640625 11.207328125l-2.703628125 -1.353346875C0.37945625 9.691703125 0.17125 9.367146875 0.1620625 9.005846875s0.18065 -0.69810625 0.4929625 -0.87875625l13.71715625 -7.838375c0.32761875 -0.186775 0.731784375 -0.168403125 1.041034375 0.042865625Z" fill="#000000" stroke-width="0.0313"></path>
</svg>