<?xml version="1.0" encoding="UTF-8"?><svg id="Layer_2" xmlns="http://www.w3.org/2000/svg" viewBox="0 0 16 16"><g id="Hamsa--Streamline-Font-Awesome"><path d="M1.08,9h1.42c.28,0,.5-.23.5-.5V2.25c0-.69.56-1.25,1.25-1.25s1.25.56,1.25,1.25v4.12c0,.34.28.62.62.62s.62-.28.62-.62V1.25c0-.69.56-1.25,1.25-1.25s1.25.56,1.25,1.25v5.12c0,.34.28.62.62.62s.62-.28.62-.62V2.25c0-.69.56-1.25,1.25-1.25s1.25.56,1.25,1.25v6.25c0,.27.23.5.5.5h1.42c.6,0,1.08.48,1.08,1.08,0,.27-.1.53-.28.73l-2.7,2.97c-1.28,1.41-3.11,2.22-5.02,2.22s-3.73-.81-5.02-2.22L.28,10.81c-.18-.2-.28-.46-.28-.73,0-.6.48-1.08,1.08-1.08ZM8,10c.55,0,1,.45,1,1s-.45,1-1,1-1-.45-1-1,.45-1,1-1Z"/></g></svg>