<svg xmlns="http://www.w3.org/2000/svg" viewBox="0 0 16 16" id="Truck--Streamline-Font-Awesome" height="16" width="16">
  <desc>
    Truck Streamline Icon: https://streamlinehq.com
  </desc>
<!--! Font Awesome Free 6.5.2 by @fontawesome - https://fontawesome.com License - https://fontawesome.com/license/free (Icons: CC BY 4.0, Fonts: SIL OFL 1.1, Code: MIT License) Copyright 2024 Fonticons, Inc.-->
  <path d="M1.336 1.7280000000000002c-0.64925 0 -1.176 0.52675 -1.176 1.176v7.840000000000001c0 0.64925 0.52675 1.176 1.176 1.176h0.392c0 1.2985 1.0535 2.352 2.352 2.352s2.352 -1.0535 2.352 -2.352h3.136c0 1.2985 1.0535 2.352 2.352 2.352s2.352 -1.0535 2.352 -2.352h0.784c0.43365000000000004 0 0.784 -0.35035 0.784 -0.784s-0.35035 -0.784 -0.784 -0.784V7.54185c0 -0.41650000000000004 -0.16415000000000002 -0.8158500000000001 -0.45815000000000006 -1.10985l-1.8938500000000003 -1.8938500000000003c-0.294 -0.294 -0.6933500000000001 -0.45815000000000006 -1.10985 -0.45815000000000006H10.352v-1.176c0 -0.64925 -0.52675 -1.176 -1.176 -1.176H1.336Zm9.016 3.9200000000000004h1.24215l1.8938500000000003 1.8938500000000003V8H10.352v-2.352ZM2.904 11.920000000000002c0 -0.905285 0.9800000000000001 -1.4710875 1.7640000000000002 -1.018445 0.36385500000000004 0.21007250000000002 0.588 0.5982999999999999 0.588 1.018445 0 0.905285 -0.9800000000000001 1.4710875 -1.7640000000000002 1.018445 -0.36385500000000004 -0.21007250000000002 -0.588 -0.5982999999999999 -0.588 -1.018445Zm9.016 -1.176c0.905285 -0.00004 1.4710800000000002 0.9799350000000001 1.0184725000000001 1.7639550000000002 -0.210065 0.36388 -0.59831 0.588045 -1.0184725000000001 0.588045 -0.905285 0 -1.4710875 -0.9800000000000001 -1.018445 -1.7640000000000002 0.21008000000000002 -0.36387250000000004 0.5982825 -0.5880200000000001 1.018445 -0.588Z" fill="#000000" stroke-width="0.025"></path>
</svg>